<svg id="Filled_cutting_stroke_ex" height="512" viewBox="0 0 512 512" width="512" xmlns="http://www.w3.org/2000/svg" data-name="Filled cutting stroke ex"><g><g><g><g><path d="m40 392v-304h178a30 30 0 0 1 30 30v274" fill="#f4defb"/><path d="m40 352h178a30 30 0 0 1 30 30v10a0 0 0 0 1 0 0h-208a0 0 0 0 1 0 0v-40a0 0 0 0 1 0 0z" fill="#c85aed"/></g><path d="m72 128h144v88h-144z" fill="#fed672"/><path d="m216 224h-144a8 8 0 0 1 -8-8v-88a8 8 0 0 1 8-8h144a8 8 0 0 1 8 8v88a8 8 0 0 1 -8 8zm-136-16h128v-72h-128z"/><g><path d="m64 240h96v16h-96z"/><path d="m176 240h48v16h-48z"/></g><g><path d="m64 304h96v16h-96z"/><path d="m176 304h48v16h-48z"/></g><g><path d="m120 272h104v16h-104z"/><path d="m64 272h40v16h-40z"/></g></g><g><g><path d="m456 392v-304h-178a30 30 0 0 0 -30 30v274" fill="#f4defb"/><path d="m448 160h16v48h-16z"/><path d="m248 352h208a0 0 0 0 1 0 0v10a30 30 0 0 1 -30 30h-178a0 0 0 0 1 0 0v-40a0 0 0 0 1 0 0z" fill="#c85aed" transform="matrix(-1 0 0 -1 704 744)"/></g><path d="m272 120h64v16h-64z"/><g><path d="m272 152h64v16h-64z"/><path d="m272 184h64v16h-64z"/><path d="m272 216h64v16h-64z"/></g><path d="m280 256h48v64h-48z" fill="#fed672"/><path d="m328 328h-48a8 8 0 0 1 -8-8v-64a8 8 0 0 1 8-8h48a8 8 0 0 1 8 8v64a8 8 0 0 1 -8 8zm-40-16h32v-48h-32z"/></g><path d="m24 392h464a0 0 0 0 1 0 0v12a20 20 0 0 1 -20 20h-424a20 20 0 0 1 -20-20v-12a0 0 0 0 1 0 0z" fill="#fed672"/><g><path d="m360 232h128a0 0 0 0 1 0 0v120a40 40 0 0 1 -40 40h-48a40 40 0 0 1 -40-40v-120a0 0 0 0 1 0 0z" fill="#fa5d3f"/><path d="m456 344h-48v-48l24-16 24 16z" fill="#fffdfa"/><path d="m496 264v-32a8 8 0 0 0 -8-8h-128a8 8 0 0 0 -8 8v120a47.8092 47.8092 0 0 0 12.2529 32h-108.2529v-2a22.0248 22.0248 0 0 1 22-22h58v-16h-58a37.7913 37.7913 0 0 0 -22 7.0325v-233.0325a22.0248 22.0248 0 0 1 22-22h138v-16h-138a37.9564 37.9564 0 0 0 -30 14.702 37.9564 37.9564 0 0 0 -30-14.702h-178a8 8 0 0 0 -8 8v32h16v-24h170a22.0248 22.0248 0 0 1 22 22v233.0325a37.7913 37.7913 0 0 0 -22-7.0325h-170v-208h-16v248h-8a8 8 0 0 0 -8 8v12a28.0314 28.0314 0 0 0 28 28h424a28.0314 28.0314 0 0 0 28-28v-12a8 8 0 0 0 -8-8h-4.2529a47.8092 47.8092 0 0 0 12.2529-32v-72h-16v72a32.0364 32.0364 0 0 1 -32 32h-48a32.0364 32.0364 0 0 1 -32-32v-112h56v35.7188l-20.4375 13.625a7.9992 7.9992 0 0 0 -3.5625 6.6562v48a8 8 0 0 0 8 8h48a8 8 0 0 0 8-8v-48a7.9992 7.9992 0 0 0 -3.5625-6.6562l-20.4375-13.625v-35.7188h40v24zm-278 96a22.0248 22.0248 0 0 1 22 22v2h-192v-24zm262 40v4a12.0134 12.0134 0 0 1 -12 12h-424a12.0134 12.0134 0 0 1 -12-12v-4zm-32-99.7188v35.7188h-32v-35.7188l16-10.6665z"/></g></g><path d="m395.156 142.311 10.198 18.647 18.646 10.198-18.646 10.198-10.198 18.646-10.198-18.646-18.647-10.198 18.647-10.198z" fill="#fed672"/><path d="m395.1553 208a7.998 7.998 0 0 1 -7.0186-4.1616l-9.0732-16.59-16.5908-9.0732a8 8 0 0 1 0-14.0381l16.5908-9.0737 9.0732-16.59a7.9993 7.9993 0 0 1 14.0371-.0005l9.0742 16.5908 16.5909 9.0737a8.0005 8.0005 0 0 1 0 14.0381l-16.5909 9.0725-9.0742 16.5909a8.0006 8.0006 0 0 1 -7.0185 4.1611zm-12.1719-36.8442 5.8135 3.1787a7.9974 7.9974 0 0 1 3.18 3.1806l3.1787 5.8125 3.18-5.813a8.0054 8.0054 0 0 1 3.18-3.18l5.8135-3.1787-5.8135-3.1792a8 8 0 0 1 -3.18-3.18l-3.18-5.8125-3.1787 5.812a7.992 7.992 0 0 1 -3.18 3.1807z"/><path d="m459.156 77.354 10.198 18.646 18.646 10.198-18.646 10.198-10.198 18.646-10.198-18.646-18.647-10.198 18.647-10.198z" fill="#fed672"/><path d="m459.1553 143.0425a7.998 7.998 0 0 1 -7.0186-4.1616l-9.0732-16.59-16.5908-9.0732a8 8 0 0 1 0-14.0381l16.5908-9.0737 9.0732-16.59a7.9994 7.9994 0 0 1 14.0371-.0005l9.0742 16.5909 16.5909 9.0737a8.0005 8.0005 0 0 1 0 14.0381l-16.5909 9.0732-9.0742 16.5908a8 8 0 0 1 -7.0185 4.1604zm-12.1719-36.8443 5.8135 3.1788a7.9968 7.9968 0 0 1 3.18 3.1806l3.1787 5.812 3.18-5.8125a8.0048 8.0048 0 0 1 3.18-3.18l5.8135-3.1788-5.8135-3.1792a7.9991 7.9991 0 0 1 -3.18-3.18l-3.18-5.813-3.1787 5.8125a7.9943 7.9943 0 0 1 -3.18 3.1806z"/></g></svg>